<?xml version="1.0" encoding="utf-8"?>
<?xml-stylesheet type="text/xsl" href="rss1.xsl"?>
<rss version="2.0" xmlns:atom="http://www.w3.org/2005/Atom" xmlns:content="http://purl.org/rss/1.0/modules/content/" xmlns:dc="http://purl.org/dc/elements/1.1/" xmlns:media="http://search.yahoo.com/mrss/">
<channel>
 <title>Getty</title>
 <link>http://www.gettyimg.com/</link>
 <atom:link href="http://www.gettyimg.com/" rel="self" type="application/rss+xml" />

 
                <item>
                <title><![CDATA[【Live Audios (lossless)】FLAC - Radiohead - Live at Bonnaroo Festival, Manchester (2006) [FLAC 16bit/44.1kHz] (Bootleg Soundboard Recording)]]></title>
                <link><![CDATA[https://sharemania.us/threads/radiohead-live-at-bonnaroo-festival-manchester-2006-flac-16bit-44-1khz-bootleg-soundboard-recording.242857/]]></link>
                <description><![CDATA[<article>
<blockquote class="messageText SelectQuoteContainer ugc baseHtml">
<img src="https://ia800300.us.archive.org/21/items/images_20240422/images.jpeg" class="bbCodeImage LbImage" alt="[​IMG]" data-url="https://ia800300.us.archive.org/21/items/images_20240422/images.jpeg" style=""> <br>
<b><br>
Dynamic Range Meter</b><br>
<div class="bbCodeBlock bbCodeCode">
<div class="type">Code:</div>
<pre>foobar2000 1.3 / Dynamic Range Meter 1.1.0
log date: 2014-03-31 20:45:05

-------------------------------------------------- ------------------------------
Analyzed: Radiohead / Live at Bonnaroo Festival, Manchester, TN, US, June 17, 2006
- -------------------------------------------------- -----------------------------

DR Peak RMS Duration Track
--------------------------------------------- -----------------------------------
DR7 -1.43 dB -10.10 dB 6:24 01-There There
DR9 -0.49 dB -12.08 dB 3:52 02-2+2=5
DR7 -1.43 dB -10.77 dB 4:50 03-15 Step
DR9 -1.43 dB -12.93 dB 4:26 04-Weird Fishes-Arpeggi
DR7 -0.43 dB -12.75 dB 4:44 05-Exit Music (For A Film)
DR7 -0.43 dB -9.96 dB 3:47 06-Kid A
DR7 -0.43 dB -8.41 dB 5:18 07-Dollars And Cents
DR8 -0.43 dB -10.27 dB 4:59 08-Videotape
DR8 -0.43 dB -11.32 dB 4:16 09-No Surprises
DR6 -0.43 dB -8.83 dB 6:18 10-Paranoid Android
DR9 -0.47 dB -10.93 dB 3:43 11-The Gloaming
DR7 -0.54 dB -8.33 dB 4:30 12-The National Anthem
DR6 -0.68 dB -8.50 dB 4:51 13-Climbing Up The Walls
DR7 -1.05 dB -11.10 dB 4:57 14-Nude
DR6 -0.44 dB -8.65 dB 4:23 15-Street Spirit (Fade Out)
DR6 -0.44 dB -8.93 dB 4:55 16-The Bends
DR6 -0.94 dB -8.10 dB 4:02 17-Myxomatosis
DR7 -0.94 dB -11.80 dB 7:47 18- How To Disappear Completely
DR11 -6.46 dB -25.55 dB 0:47 19-encore break 1
DR7 -0.94 dB -12.39 dB 3:31 20-You And Whose Army
DR7 -0.47 dB -10.39 dB 4:53 21-Pyramid Song
DR10 -0.96 dB -13.79 dB 3:24 22-Like Spinning Plates
DR8 -0.47 dB -13.28 dB 5:19 23-Fake Plastic Trees
DR7 -0.44 dB -8.72 dB 5:07 24-Bodysnatchers
DR7 -0.44 dB -10.23 dB 4 :22 25-Lucky
DR7 -0.44 dB -10.50 dB 5:01 26-Idioteque
DR7 -0.44 dB -10.39 dB 5:07 27-Karma Police
DR14 -1.90 dB -22.23 dB 1:22 28-encore break 2
DR7 -0.44 dB -10.36 dB 5:42 29-House Of Cards
DR5 -0.20 dB -6.75 dB 8:43 30-Everything In It's Right Place
--------------------- -------------------------------------------------- ---------

Number of tracks: 30
Official DR value: DR8

Samplerate: 44100 Hz
Channels: 2
Bits per sample: 16
Bitrate: 944 kbps
Codec: FLAC </pre>
</div><b>Track list:</b><br>
01. There There (6:24)<br>
02. 2+2=5 (3:52)<br>
03. 15 Step (4:50)<br>
04. Weird Fishes-Arpeggi (4:26)<br>
05. Exit Music (For A Film) (4:44)<br>
06. Kid A (3:47)<br>
07. Dollars And Cents (5:18)<br>
08. Videotape (4:59)<br>
09. No Surprises (4:16)<br>
10. Paranoid Android (6:18)<br>
11. The Gloaming (3:43)<br>
12. The National Anthem (4:30)<br>
13. Climbing Up The Walls (4:51)<br>
14. Nude (4:57)<br>
15. Street Spirit (Fade Out) (4:23 )<br>
16. The Bends (4:55)<br>
17. Myxomatosis (4:02)<br>
18. How To Disappear Completely (7:47)<br>
19. encore break 1 (0:47)<br>
20. You And Whose Army (3:31)<br>
21. Pyramid Song (4:53)<br>
22. Like Spinning Plates (3:24)<br>
23. Fake Plastic Trees (5:19)<br>
24. Bodysnatchers (5:07)<br>
25. Lucky (4:22)<br>
26. Idioteque (5 :01)<br>
27. Karma Police (5:07)<br>
28. encore break 2 (1:22)<br>
29. House Of Cards (5:42)<br>
30. Everything In It's Right Place (8:43)<br>
<br>
<b>Original Soundboard Mastered by Paul Phipps. This Restoration by JWB - January 11, 2013</b><br>
<br>
<span style="color: #ff0000"><b>DOWNLOAD:</b></span><br>
<b>Password:</b> SharemaniaOLOBER <br>
<div class="bbCodeBlock bbCodeVfcHH HiddenContent">
<div class="attribution type">Hidden Content:</div>
<blockquote>You must reply before you can see the hidden data contained here.</blockquote>
</div>
<div class="messageTextEndMarker">&nbsp;</div>
</blockquote>
</article>]]></description>
                <author><![CDATA[olobersykes99]]></author>
                </item>

                </channel></rss>